<svg xmlns="http://www.w3.org/2000/svg" width="19" height="18" fill="none" viewBox="0 0 19 18"><path fill="#C4C4C4" stroke="#333" stroke-width="1.783" d="M14.1645 2.44122L13.8999 1.89167L13.2918 1.93933L5.88553 2.51977L5.44117 2.5546L5.20243 2.931L2.07304 7.86481L1.81474 8.27205L2.01427 8.71108L4.91607 15.096L5.13423 15.5761L5.66001 15.616L13.2938 16.1965L13.9287 16.2448L14.1803 15.6599L17.0157 9.06762L17.1762 8.69453L16.9999 8.32862L14.1645 2.44122Z"/><g filter="url(#filter0_i_1824_6762)"><path fill="url(#paint0_linear_1824_6762)" d="M13.3614 2.82806L5.95518 3.40851L2.82579 8.34232L5.72759 14.7273L13.3614 15.3077L16.1968 8.71547L13.3614 2.82806Z"/></g><defs><filter id="filter0_i_1824_6762" width="13.371" height="12.48" x="2.826" y="2.828" color-interpolation-filters="sRGB" filterUnits="userSpaceOnUse"><feFlood flood-opacity="0" result="BackgroundImageFix"/><feBlend in="SourceGraphic" in2="BackgroundImageFix" mode="normal" result="shape"/><feColorMatrix in="SourceAlpha" result="hardAlpha" type="matrix" values="0 0 0 0 0 0 0 0 0 0 0 0 0 0 0 0 0 0 127 0"/><feOffset dx="-.446" dy="1.337"/><feComposite in2="hardAlpha" k2="-1" k3="1" operator="arithmetic"/><feColorMatrix type="matrix" values="0 0 0 0 0.9375 0 0 0 0 0.9375 0 0 0 0 0.9375 0 0 0 0.25 0"/><feBlend in2="shape" mode="normal" result="effect1_innerShadow_1824_6762"/></filter><linearGradient id="paint0_linear_1824_6762" x1="9.511" x2="9.511" y1="2.828" y2="15.308" gradientUnits="userSpaceOnUse"><stop offset=".286" stop-color="#B7B7B7"/><stop offset="1" stop-color="#9B9B9B"/></linearGradient></defs></svg>